<?xml version="1.0" encoding="UTF-8" standalone="no"?>
<svg width="465px" height="291px" viewBox="0 0 465 291" version="1.1" xmlns="http://www.w3.org/2000/svg" xmlns:xlink="http://www.w3.org/1999/xlink">
    <!-- Generator: Sketch 42 (36781) - http://www.bohemiancoding.com/sketch -->
    <title>Sweatshirt</title>
    <desc>Created with Sketch.</desc>
    <defs></defs>
    <g id="Page-1" stroke="none" stroke-width="1" fill="none" fill-rule="evenodd" stroke-linecap="round" stroke-linejoin="round">
        <g id="Homepage-V3" transform="translate(-975.000000, -696.000000)" stroke="#2B2C7A" stroke-width="3">
            <g id="Sweatshirt" transform="translate(952.000000, 697.000000)">
                <path d="M385.18683,5.41842937 C382.662706,47.6095935 347.562278,81.1638765 304.781609,81.1638765 C262.004536,81.1638765 226.907704,47.6131922 224.379984,5.42202807" id="Stroke-1"></path>
                <path d="M373.61613,0.545429084 C373.61613,38.594489 342.798084,69.4389506 304.781609,69.4389506 C266.768731,69.4389506 235.950685,38.594489 235.950685,0.545429084" id="Stroke-3"></path>
                <polyline id="Stroke-5" points="487.850008 48.1839461 373.617209 0.544349474 235.948168 0.544349474 121.715368 48.1839461"></polyline>
                <path d="M20.339062,608.306917 C16.031511,609.65643 11.5154142,606.961003 10.7028044,602.516608 C7.66450677,585.969783 1.39374811,548.662056 2.26029217,527.131031 L2.7528919,514.963825 C3.19155736,503.998585 2.93267283,492.99016 2.00500326,482.053709 C-4.19384303,408.866938 11.3068683,352.849567 11.3068683,352.849567 C77.6999638,39.1724403 120.415912,48.2123758 120.415912,48.2123758 C120.415912,48.2123758 157.760005,86.077902 138.232201,213.112028 L108.334633,344.439404 C105.907591,355.113149 103.156943,365.71852 99.7950394,376.136757 C94.955337,391.121746 86.4840598,427.119547 86.4840598,495.520046 L84.8013103,571.405843 C84.6826549,576.803893 84.7725454,582.201944 84.7905235,587.599995 C84.8013103,591.1843 84.3698361,596.873846 82.2628037,603.776153 C81.0546759,607.734724 77.0024138,610.081077 73.0220641,608.954683 C71.1703206,608.429273 69.0489057,607.82829 66.812431,607.198517 C52.109947,603.034821 36.4905802,603.247144 21.9067516,607.813895 L20.339062,608.306917 Z" id="Stroke-7"></path>
                <path d="M589.226674,608.306917 C593.534225,609.65643 598.050321,606.961003 598.862931,602.516608 C601.901229,585.969783 608.171988,548.662056 607.305444,527.131031 L606.812844,514.963825 C606.374178,503.998585 606.633063,492.99016 607.560732,482.053709 C613.759579,408.866938 598.258867,352.849567 598.258867,352.849567 C531.865772,39.1724403 489.149824,48.2123758 489.149824,48.2123758 C489.149824,48.2123758 451.80573,86.077902 471.333535,213.112028 L501.231102,344.439404 C503.658145,355.113149 506.408793,365.71852 509.770696,376.136757 C514.610399,391.121746 523.081676,427.119547 523.081676,495.520046 L524.764425,571.405843 C524.883081,576.803893 524.79319,582.201944 524.775212,587.599995 C524.764425,591.1843 525.1959,596.873846 527.302932,603.776153 C528.51106,607.734724 532.563322,610.081077 536.543672,608.954683 C538.395415,608.429273 540.51683,607.82829 542.753305,607.198517 C557.455789,603.034821 573.075155,603.247144 587.658984,607.813895 L589.226674,608.306917 Z" id="Stroke-13"></path>
                <path d="M137.003938,218.510439 L137.003938,399.240774 L140.671469,582.252686 C140.761359,586.848226 144.511589,590.526098 149.103194,590.526098 L462.651914,590.526098 C467.311835,590.526098 471.09083,586.747463 471.09083,582.083547 L471.09083,351.601178 L472.561438,218.510439" id="Stroke-19"></path>
                <path d="M237.295086,11 L370.365331,11" id="Stroke-23"></path>
            </g>
        </g>
    </g>
</svg>